<svg width="912" height="411" viewBox="0 0 912 411" fill="none" xmlns="http://www.w3.org/2000/svg">
<rect width="912" height="411" fill="#1A1A1A"/>
<path d="M153.85 165.7H63.35C60.35 165.7 57.95 163.3 57.95 160.3C57.95 127.6 84.55 101.1 117.15 101.1H207.65C210.65 101.1 213.05 103.5 213.05 106.5C213.05 139.1 186.55 165.7 153.85 165.7ZM69.05 154.9H153.85C178.75 154.9 199.25 136 201.95 111.9H117.15C92.35 111.8 71.75 130.7 69.05 154.9Z" fill="white"/>
<path d="M63.35 256.1C60.35 256.1 57.95 253.7 57.95 250.7V160.2C57.95 127.5 84.55 101 117.15 101C120.15 101 122.55 103.4 122.55 106.4V196.9C122.65 229.6 96.05 256.1 63.35 256.1ZM111.85 112.1C87.65 114.8 68.85 135.3 68.85 160.2V245C93.0499 242.3 111.85 221.7 111.85 196.9V112.1Z" fill="white"/>
<path d="M207.65 310H117.15C84.45 310 57.95 283.4 57.95 250.8C57.95 247.8 60.35 245.4 63.35 245.4H153.85C186.55 245.4 213.05 272 213.05 304.6C213.05 307.6 210.65 310 207.65 310ZM69.05 256.1C71.75 280.3 92.35 299.1 117.15 299.1H201.95C199.25 274.9 178.65 256.1 153.85 256.1H69.05Z" fill="white"/>
<path d="M291.75 230.151C277.15 230.151 266.45 226.651 259.45 219.751C252.45 212.751 249.05 202.051 249.05 187.451V143.551C249.05 128.851 252.55 118.051 259.45 111.051C266.35 104.051 277.15 100.651 291.65 100.751H314.75C326.75 100.751 335.85 103.251 342.15 108.151C348.45 113.051 352.15 120.851 353.15 131.451C353.55 134.151 353.05 136.151 351.65 137.551C350.25 138.951 348.25 139.651 345.55 139.651C340.75 139.651 337.95 136.951 337.15 131.651C336.55 125.751 334.45 121.851 331.05 119.851C327.65 117.851 322.25 116.751 314.75 116.751H291.65C284.95 116.651 279.65 117.451 275.75 119.051C271.85 120.651 269.15 123.351 267.55 127.351C265.95 131.251 265.15 136.651 265.15 143.551V187.451C265.15 194.251 265.95 199.651 267.55 203.451C269.15 207.351 271.95 210.051 275.85 211.751C279.75 213.351 285.05 214.151 291.85 214.151H314.75C322.15 214.151 327.65 213.151 331.05 211.051C334.45 208.951 336.45 205.051 337.15 199.251C337.95 193.951 340.75 191.251 345.55 191.251C348.25 191.251 350.25 191.951 351.65 193.351C353.05 194.751 353.55 196.751 353.15 199.451C352.15 210.151 348.45 217.951 342.15 222.851C335.85 227.751 326.75 230.151 314.75 230.151H291.75Z" fill="white"/>
<path d="M380.05 229.451C374.95 227.451 373.45 223.951 375.45 218.951L420.95 107.051C422.85 102.851 425.85 100.751 429.95 100.751H430.35C434.45 100.951 437.25 103.051 438.75 107.051L484.95 218.851C486.95 223.851 485.55 227.351 480.55 229.351C475.55 231.351 472.05 229.851 470.05 224.951L459.75 199.951H400.35L390.55 224.951C388.35 229.951 384.95 231.451 380.05 229.451ZM406.45 183.951H453.05L429.25 126.151L406.45 183.951Z" fill="white"/>
<path d="M521.05 230.151C515.75 230.151 513.05 227.451 513.05 222.151V108.751C513.05 103.451 515.75 100.751 521.05 100.751H567.05C583.65 100.751 595.85 104.651 603.75 112.551C611.65 120.451 615.55 132.651 615.55 149.251V181.651C615.55 198.251 611.65 210.451 603.85 218.351C596.05 226.251 583.75 230.151 567.05 230.151H521.05ZM529.15 214.151H567.15C575.25 214.151 581.75 213.151 586.45 211.151C591.15 209.151 594.55 205.751 596.55 201.051C598.55 196.351 599.55 189.851 599.55 181.751V149.251C599.55 141.151 598.55 134.751 596.55 130.051C594.55 125.351 591.15 121.951 586.45 119.851C581.75 117.851 575.25 116.751 567.15 116.751H529.15V214.151Z" fill="white"/>
<path d="M733.65 230.551C731.55 231.851 729.55 232.251 727.65 231.751C725.75 231.251 724.15 229.951 722.75 227.851L693.15 178.651H666.45V222.151C666.45 227.451 663.75 230.151 658.45 230.151C653.15 230.151 650.45 227.451 650.45 222.151V108.751C650.45 103.451 653.15 100.751 658.45 100.751H703.15C714.75 100.751 723.75 103.851 729.95 110.051C736.15 116.251 739.25 125.151 739.25 136.851V142.551C739.25 152.651 736.85 160.751 732.15 166.751C727.45 172.751 720.65 176.451 711.75 177.951L736.75 219.651C739.15 224.151 738.15 227.751 733.65 230.551ZM666.55 162.651H703.15C710.45 162.651 715.55 161.151 718.65 158.051C721.75 154.951 723.25 149.851 723.25 142.551V136.851C723.25 129.651 721.75 124.551 718.65 121.451C715.55 118.351 710.45 116.851 703.15 116.851H666.55V162.651Z" fill="white"/>
<path d="M777.55 230.151C772.25 230.151 769.55 227.451 769.55 222.151V108.751C769.55 103.451 772.25 100.751 777.55 100.751H846.05C851.35 100.751 854.05 103.451 854.05 108.751C854.05 114.051 851.35 116.751 846.05 116.751H785.55V156.851H823.55C828.85 156.851 831.55 159.551 831.55 164.851C831.55 170.151 828.85 172.851 823.55 172.851H785.55V214.051H846.05C851.35 214.051 854.05 216.751 854.05 222.051C854.05 227.351 851.35 230.051 846.05 230.051H777.55V230.151Z" fill="white"/>
<path d="M360.75 263.851C358.25 263.851 357.05 262.651 357.05 260.151V257.851C357.05 255.451 358.25 254.151 360.75 254.151H363.05C365.45 254.151 366.55 255.351 366.55 257.851V260.151C366.55 262.651 365.35 263.851 363.05 263.851H360.75ZM361.85 309.751C359.65 309.751 358.55 308.651 358.55 306.451V273.551C358.55 271.351 359.65 270.251 361.85 270.251C364.05 270.251 365.15 271.351 365.15 273.551V306.451C365.05 308.651 363.95 309.751 361.85 309.751Z" fill="white"/>
<path d="M384.45 309.751C382.25 309.751 381.15 308.651 381.15 306.451V273.551C381.15 271.351 382.25 270.251 384.45 270.251C386.65 270.251 387.75 271.351 387.75 273.551V274.851C390.45 271.851 394.55 270.251 399.85 270.251H402.05C407.25 270.251 411.05 271.451 413.55 273.951C416.05 276.451 417.25 280.251 417.25 285.451V306.351C417.25 308.551 416.15 309.651 413.95 309.651C411.75 309.651 410.65 308.551 410.65 306.351V285.451C410.65 282.051 410.05 279.751 408.85 278.551C407.65 277.351 405.35 276.751 401.95 276.751H399.75C396.65 276.751 393.95 277.151 391.65 277.851C389.35 278.551 388.05 279.651 387.65 281.251V306.451C387.75 308.651 386.65 309.751 384.45 309.751Z" fill="white"/>
<path d="M441.85 309.751C438.55 309.751 435.95 309.051 434.05 307.751C432.15 306.351 430.85 304.351 430.35 301.651C430.15 300.551 430.35 299.751 430.95 299.051C431.55 298.451 432.45 298.151 433.45 298.151C434.55 298.151 435.25 298.451 435.75 298.951C436.25 299.451 436.65 300.251 436.95 301.351C437.25 302.151 437.75 302.651 438.55 302.951C439.25 303.251 440.35 303.351 441.75 303.351H454.55C456.55 303.351 457.95 303.051 458.65 302.351C459.35 301.651 459.75 300.351 459.75 298.251C459.75 296.151 459.45 294.751 458.65 294.151C457.95 293.451 456.55 293.151 454.55 293.151H442.05C438.35 293.151 435.45 292.251 433.65 290.351C431.85 288.451 430.85 285.651 430.85 281.951C430.85 278.251 431.75 275.251 433.65 273.451C435.55 271.551 438.35 270.651 442.15 270.651H454.25C460.35 270.651 463.95 273.251 465.05 278.351C465.25 279.451 465.05 280.251 464.45 280.851C463.85 281.451 462.95 281.751 461.85 281.751C460.85 281.751 460.05 281.451 459.55 280.951C459.05 280.451 458.65 279.651 458.35 278.751C458.05 278.151 457.55 277.751 456.95 277.551C456.35 277.351 455.35 277.251 454.15 277.251H442.05C440.05 277.251 438.75 277.551 438.15 278.151C437.55 278.751 437.25 280.051 437.25 282.051C437.25 284.051 437.55 285.151 438.25 285.851C438.85 286.451 440.15 286.851 442.05 286.851H454.55C458.45 286.851 461.35 287.851 463.35 289.751C465.25 291.651 466.25 294.651 466.25 298.551C466.25 302.451 465.25 305.351 463.35 307.351C461.45 309.251 458.45 310.251 454.55 310.251H441.85V309.751Z" fill="white"/>
<path d="M512.15 270.251C514.35 270.251 515.45 271.351 515.45 273.551V306.451C515.45 308.651 514.35 309.751 512.15 309.751C509.95 309.751 508.85 308.651 508.85 306.451V305.151C506.15 308.151 502.05 309.751 496.75 309.751H494.55C489.35 309.751 485.55 308.451 483.05 305.951C480.55 303.451 479.25 299.651 479.25 294.451V273.551C479.25 271.351 480.35 270.251 482.55 270.251C484.75 270.251 485.85 271.351 485.85 273.551V294.451C485.85 297.851 486.45 300.151 487.65 301.351C488.85 302.551 491.15 303.151 494.55 303.151H496.75C499.85 303.151 502.55 302.751 504.95 302.051C507.25 301.351 508.65 300.251 508.95 298.751V273.551C508.95 271.351 509.95 270.251 512.15 270.251Z" fill="white"/>
<path d="M534.85 309.751C532.65 309.751 531.55 308.651 531.55 306.451V273.551C531.55 271.351 532.65 270.251 534.85 270.251C537.05 270.251 538.15 271.351 538.15 273.551V276.551C539.65 274.451 541.65 272.951 544.05 271.851C546.45 270.751 549.15 270.251 552.25 270.251C554.45 270.251 555.55 271.351 555.55 273.551C555.55 275.751 554.45 276.851 552.25 276.851C547.75 276.851 544.35 277.651 541.95 279.351C539.55 281.051 538.35 283.251 538.25 285.951V306.551C538.05 308.651 536.95 309.751 534.85 309.751Z" fill="white"/>
<path d="M574.55 309.751C570.15 309.751 566.95 308.651 564.85 306.551C562.75 304.451 561.65 301.151 561.65 296.851C561.65 292.551 562.75 289.251 564.85 287.151C566.95 285.051 570.25 283.951 574.55 283.951H590.95C590.75 281.251 590.05 279.351 588.85 278.351C587.55 277.351 585.35 276.851 582.35 276.851H577.85C575.25 276.851 573.35 277.051 572.05 277.351C570.75 277.751 569.85 278.351 569.35 279.251C568.85 280.351 568.45 281.051 567.95 281.551C567.45 281.951 566.75 282.151 565.75 282.151C564.65 282.151 563.85 281.851 563.15 281.251C562.55 280.651 562.35 279.851 562.65 278.851C563.45 275.951 565.05 273.751 567.55 272.451C570.05 271.051 573.45 270.451 577.95 270.451H582.45C587.65 270.451 591.45 271.651 593.95 274.151C596.45 276.651 597.65 280.451 597.65 285.651V306.551C597.65 308.751 596.55 309.851 594.35 309.851C592.15 309.851 591.05 308.751 591.05 306.551V304.751C588.25 308.051 584.25 309.751 578.95 309.751H574.55ZM574.55 303.151H578.95C580.85 303.151 582.65 302.951 584.35 302.651C586.05 302.351 587.45 301.651 588.65 300.751C589.85 299.851 590.65 298.451 591.05 296.751V290.451H574.55C571.95 290.451 570.25 290.851 569.45 291.751C568.65 292.651 568.15 294.351 568.15 296.851C568.15 299.351 568.55 301.151 569.45 301.951C570.25 302.751 571.95 303.151 574.55 303.151Z" fill="white"/>
<path d="M616.15 309.751C613.95 309.751 612.85 308.651 612.85 306.451V273.551C612.85 271.351 613.95 270.251 616.15 270.251C618.35 270.251 619.45 271.351 619.45 273.551V274.851C622.15 271.851 626.25 270.251 631.55 270.251H633.75C638.95 270.251 642.75 271.451 645.25 273.951C647.75 276.451 648.95 280.251 648.95 285.451V306.351C648.95 308.551 647.85 309.651 645.65 309.651C643.45 309.651 642.35 308.551 642.35 306.351V285.451C642.35 282.051 641.75 279.751 640.55 278.551C639.35 277.351 637.05 276.751 633.65 276.751H631.45C628.35 276.751 625.65 277.151 623.35 277.851C621.05 278.551 619.75 279.651 619.35 281.251V306.451C619.45 308.651 618.35 309.751 616.15 309.751Z" fill="white"/>
<path d="M677.75 309.751C672.55 309.751 668.75 308.451 666.25 305.951C663.75 303.451 662.45 299.651 662.45 294.451V285.451C662.45 280.251 663.65 276.451 666.15 273.951C668.65 271.451 672.45 270.251 677.65 270.251H684.05C687.95 270.251 690.95 270.951 693.15 272.151C695.35 273.451 696.75 275.451 697.45 278.151C697.65 279.251 697.45 280.051 696.85 280.651C696.25 281.251 695.35 281.551 694.25 281.551C693.25 281.551 692.45 281.251 692.05 280.751C691.55 280.251 691.15 279.551 690.75 278.551C690.35 277.851 689.65 277.351 688.65 277.051C687.65 276.751 686.05 276.651 684.05 276.651H677.65C674.35 276.551 672.05 277.151 670.75 278.351C669.55 279.551 668.95 281.851 668.95 285.251V294.251C668.95 297.651 669.55 299.951 670.75 301.151C671.95 302.351 674.25 302.951 677.65 302.951H684.05C686.05 302.951 687.55 302.851 688.65 302.551C689.65 302.251 690.45 301.751 690.75 301.051C691.15 300.051 691.55 299.351 692.05 298.851C692.55 298.351 693.25 298.151 694.35 298.151C695.45 298.151 696.25 298.451 696.85 299.051C697.45 299.651 697.65 300.451 697.45 301.551C696.85 304.251 695.45 306.251 693.15 307.551C690.95 308.851 687.85 309.551 684.05 309.551H677.75V309.751Z" fill="white"/>
<path d="M715.65 292.651V294.551C715.65 297.851 716.25 300.151 717.45 301.351C718.65 302.551 720.95 303.151 724.35 303.151H730.75C733.35 303.151 735.35 302.951 736.65 302.451C737.95 301.951 738.75 301.051 739.15 299.851C739.45 298.851 739.85 298.151 740.35 297.551C740.85 297.051 741.65 296.751 742.65 296.751C743.75 296.751 744.55 297.051 745.15 297.651C745.75 298.251 745.95 299.051 745.65 300.151C745.05 303.351 743.55 305.751 741.05 307.351C738.55 308.951 735.15 309.751 730.75 309.751H724.35C719.15 309.751 715.35 308.551 712.85 306.051C710.35 303.551 709.05 299.751 709.05 294.651V285.651C709.05 280.351 710.35 276.551 712.85 274.051C715.35 271.551 719.15 270.351 724.35 270.451H730.75C735.95 270.451 739.75 271.651 742.25 274.151C744.75 276.651 745.95 280.451 745.95 285.651V289.551C745.95 291.751 744.85 292.851 742.65 292.851H715.65V292.651ZM724.45 276.851C721.05 276.751 718.75 277.351 717.55 278.651C716.35 279.951 715.75 282.151 715.75 285.651V286.251H739.55V285.651C739.55 282.251 738.95 279.951 737.75 278.751C736.55 277.551 734.25 276.951 730.85 276.951H724.45V276.851Z" fill="white"/>
</svg>
