<svg width="912" height="411" viewBox="0 0 912 411" fill="none" xmlns="http://www.w3.org/2000/svg">
<g clip-path="url(#clip0_331_503)">
<path d="M153.75 165.45H63.2501C60.2501 165.45 57.8501 163.05 57.8501 160.05C57.8501 127.35 84.4501 100.85 117.05 100.85H207.55C210.55 100.85 212.95 103.25 212.95 106.25C213.05 138.85 186.45 165.45 153.75 165.45ZM68.9501 154.65H153.75C178.65 154.65 199.15 135.75 201.85 111.65H117.05C92.2501 111.55 71.6501 130.45 68.9501 154.65Z" fill="#1A1A1A"/>
<path d="M63.2501 255.85C60.2501 255.85 57.8501 253.45 57.8501 250.45V159.95C57.8501 127.25 84.4501 100.75 117.05 100.75C120.05 100.75 122.45 103.15 122.45 106.15V196.65C122.55 229.35 95.9501 255.85 63.2501 255.85ZM111.75 111.85C87.5501 114.55 68.7501 135.05 68.7501 159.95V244.75C92.9501 242.05 111.75 221.45 111.75 196.65V111.85Z" fill="#1A1A1A"/>
<path d="M207.65 309.75H117.15C84.4502 309.75 57.9502 283.15 57.9502 250.55C57.9502 247.55 60.3502 245.15 63.3502 245.15H153.85C186.55 245.15 213.05 271.75 213.05 304.35C213.05 307.35 210.55 309.75 207.65 309.75ZM68.9502 255.85C71.6502 280.05 92.2502 298.85 117.05 298.85H201.85C199.15 274.65 178.55 255.85 153.75 255.85H68.9502Z" fill="#1A1A1A"/>
<path d="M291.85 230.15C277.25 230.15 266.55 226.65 259.55 219.75C252.55 212.75 249.15 202.05 249.15 187.45V143.55C249.15 128.85 252.65 118.05 259.55 111.05C266.45 104.05 277.25 100.65 291.75 100.75H314.85C326.85 100.75 335.95 103.25 342.25 108.15C348.55 113.05 352.25 120.85 353.25 131.45C353.65 134.15 353.15 136.15 351.75 137.55C350.35 138.95 348.35 139.65 345.65 139.65C340.85 139.65 338.05 136.95 337.25 131.65C336.65 125.75 334.55 121.85 331.15 119.85C327.75 117.85 322.35 116.75 314.85 116.75H291.65C284.95 116.65 279.65 117.45 275.75 119.05C271.85 120.65 269.15 123.35 267.55 127.35C265.95 131.25 265.15 136.65 265.15 143.55V187.45C265.15 194.25 265.95 199.65 267.55 203.45C269.15 207.35 271.95 210.05 275.85 211.75C279.75 213.35 285.05 214.15 291.85 214.15H314.75C322.15 214.15 327.65 213.15 331.05 211.05C334.45 208.95 336.45 205.05 337.15 199.25C337.95 193.95 340.75 191.25 345.55 191.25C348.25 191.25 350.25 191.95 351.65 193.35C353.05 194.75 353.55 196.75 353.15 199.45C352.15 210.15 348.45 217.95 342.15 222.85C335.85 227.75 326.75 230.15 314.75 230.15H291.85Z" fill="#1A1A1A"/>
<path d="M380.15 229.45C375.05 227.45 373.55 223.95 375.55 218.95L420.95 107.15C422.85 102.95 425.85 100.85 429.95 100.85H430.35C434.45 101.05 437.25 103.15 438.75 107.15L484.95 218.95C486.95 223.95 485.55 227.45 480.55 229.45C475.55 231.45 472.05 229.95 470.05 225.05L459.75 200.05H400.35L390.55 225.05C388.55 229.95 385.05 231.45 380.15 229.45ZM406.65 183.95H453.25L429.45 126.15L406.65 183.95Z" fill="#1A1A1A"/>
<path d="M521.25 230.15C515.95 230.15 513.25 227.45 513.25 222.15V108.75C513.25 103.45 515.95 100.75 521.25 100.75H567.25C583.85 100.75 596.05 104.65 603.95 112.55C611.85 120.45 615.75 132.65 615.75 149.25V181.65C615.75 198.25 611.85 210.45 604.05 218.35C596.25 226.25 583.95 230.15 567.25 230.15H521.25ZM529.25 214.15H567.25C575.35 214.15 581.85 213.15 586.55 211.15C591.25 209.15 594.65 205.75 596.65 201.05C598.65 196.35 599.65 189.85 599.65 181.75V149.25C599.65 141.15 598.65 134.75 596.65 130.05C594.65 125.35 591.25 121.95 586.55 119.85C581.85 117.85 575.35 116.75 567.25 116.75H529.25V214.15Z" fill="#1A1A1A"/>
<path d="M733.75 230.55C731.65 231.85 729.65 232.25 727.75 231.75C725.85 231.25 724.25 229.95 722.85 227.85L693.25 178.65H666.65V222.15C666.65 227.45 663.95 230.15 658.65 230.15C653.35 230.15 650.65 227.45 650.65 222.15V108.75C650.65 103.45 653.35 100.75 658.65 100.75H703.35C714.95 100.75 723.95 103.85 730.15 110.05C736.35 116.25 739.45 125.15 739.45 136.85V142.55C739.45 152.65 737.05 160.75 732.35 166.75C727.65 172.75 720.85 176.45 711.95 177.95L736.95 219.65C739.25 224.15 738.25 227.75 733.75 230.55ZM666.65 162.65H703.25C710.55 162.65 715.65 161.15 718.75 158.05C721.85 154.95 723.35 149.85 723.35 142.55V136.85C723.35 129.65 721.85 124.55 718.75 121.45C715.65 118.35 710.55 116.85 703.25 116.85H666.65V162.65Z" fill="#1A1A1A"/>
<path d="M777.65 230.15C772.35 230.15 769.65 227.45 769.65 222.15V108.75C769.65 103.45 772.35 100.75 777.65 100.75H846.15C851.45 100.75 854.15 103.45 854.15 108.75C854.15 114.05 851.45 116.75 846.15 116.75H785.65V156.85H823.65C828.95 156.85 831.65 159.55 831.65 164.85C831.65 170.15 828.95 172.85 823.65 172.85H785.65V214.05H846.15C851.45 214.05 854.15 216.75 854.15 222.05C854.15 227.35 851.45 230.05 846.15 230.05H777.65V230.15Z" fill="#1A1A1A"/>
<path d="M360.85 263.85C358.35 263.85 357.15 262.65 357.15 260.15V257.85C357.15 255.45 358.35 254.15 360.85 254.15H363.15C365.55 254.15 366.65 255.35 366.65 257.85V260.15C366.65 262.65 365.45 263.85 363.15 263.85H360.85ZM361.95 309.75C359.75 309.75 358.65 308.65 358.65 306.45V273.55C358.65 271.35 359.75 270.25 361.95 270.25C364.15 270.25 365.25 271.35 365.25 273.55V306.45C365.15 308.65 364.15 309.75 361.95 309.75Z" fill="#1A1A1A"/>
<path d="M384.55 309.75C382.35 309.75 381.25 308.65 381.25 306.45V273.55C381.25 271.35 382.35 270.25 384.55 270.25C386.75 270.25 387.85 271.35 387.85 273.55V274.85C390.55 271.85 394.65 270.25 399.95 270.25H402.15C407.35 270.25 411.15 271.45 413.65 273.95C416.15 276.45 417.35 280.25 417.35 285.45V306.35C417.35 308.55 416.25 309.65 414.05 309.65C411.85 309.65 410.75 308.55 410.75 306.35V285.45C410.75 282.05 410.15 279.75 408.95 278.55C407.75 277.35 405.45 276.75 402.05 276.75H399.85C396.75 276.75 394.05 277.15 391.75 277.85C389.45 278.55 388.15 279.65 387.75 281.25V306.45C387.85 308.65 386.75 309.75 384.55 309.75Z" fill="#1A1A1A"/>
<path d="M442.05 309.75C438.75 309.75 436.15 309.05 434.25 307.75C432.35 306.35 431.05 304.35 430.55 301.65C430.35 300.55 430.55 299.75 431.15 299.05C431.75 298.45 432.65 298.15 433.65 298.15C434.75 298.15 435.45 298.45 435.95 298.95C436.45 299.45 436.85 300.25 437.15 301.35C437.45 302.15 437.95 302.65 438.75 302.95C439.45 303.25 440.55 303.35 441.95 303.35H454.75C456.75 303.35 458.15 303.05 458.85 302.35C459.55 301.65 459.95 300.35 459.95 298.25C459.95 296.15 459.65 294.75 458.85 294.15C458.05 293.55 456.75 293.15 454.75 293.15H442.25C438.55 293.15 435.65 292.25 433.85 290.35C432.05 288.45 431.05 285.65 431.05 281.95C431.05 278.25 431.95 275.25 433.85 273.45C435.75 271.55 438.55 270.65 442.35 270.65H454.45C460.55 270.65 464.15 273.25 465.25 278.35C465.45 279.45 465.25 280.25 464.65 280.85C464.05 281.45 463.15 281.75 462.05 281.75C461.05 281.75 460.25 281.45 459.75 280.95C459.25 280.45 458.85 279.65 458.55 278.75C458.25 278.15 457.75 277.75 457.15 277.55C456.55 277.35 455.55 277.25 454.35 277.25H442.25C440.25 277.25 438.95 277.55 438.35 278.15C437.75 278.75 437.45 280.05 437.45 282.05C437.45 284.05 437.75 285.15 438.45 285.85C439.05 286.45 440.35 286.85 442.25 286.85H454.75C458.65 286.85 461.55 287.85 463.55 289.75C465.55 291.65 466.45 294.65 466.45 298.55C466.45 302.45 465.45 305.35 463.55 307.35C461.65 309.25 458.65 310.25 454.75 310.25H442.05V309.75Z" fill="#1A1A1A"/>
<path d="M512.25 270.25C514.45 270.25 515.55 271.35 515.55 273.55V306.45C515.55 308.65 514.45 309.75 512.25 309.75C510.05 309.75 508.95 308.65 508.95 306.45V305.15C506.25 308.15 502.15 309.75 496.85 309.75H494.65C489.45 309.75 485.65 308.45 483.15 305.95C480.65 303.45 479.35 299.65 479.35 294.45V273.55C479.35 271.35 480.45 270.25 482.65 270.25C484.85 270.25 485.95 271.35 485.95 273.55V294.45C485.95 297.85 486.55 300.15 487.75 301.35C488.95 302.55 491.25 303.15 494.65 303.15H496.85C499.95 303.15 502.65 302.75 505.05 302.05C507.35 301.35 508.75 300.25 509.05 298.75V273.55C509.05 271.35 510.15 270.25 512.25 270.25Z" fill="#1A1A1A"/>
<path d="M534.95 309.75C532.75 309.75 531.65 308.65 531.65 306.45V273.55C531.65 271.35 532.75 270.25 534.95 270.25C537.15 270.25 538.25 271.35 538.25 273.55V276.55C539.75 274.45 541.75 272.95 544.15 271.85C546.55 270.75 549.25 270.25 552.35 270.25C554.55 270.25 555.65 271.35 555.65 273.55C555.65 275.75 554.55 276.85 552.35 276.85C547.85 276.85 544.45 277.65 542.05 279.35C539.65 281.05 538.45 283.25 538.35 285.95V306.55C538.15 308.65 537.15 309.75 534.95 309.75Z" fill="#1A1A1A"/>
<path d="M574.65 309.75C570.25 309.75 567.05 308.65 564.95 306.55C562.85 304.45 561.75 301.15 561.75 296.85C561.75 292.55 562.85 289.25 564.95 287.15C567.05 285.05 570.35 283.95 574.65 283.95H591.15C590.95 281.25 590.25 279.35 589.05 278.35C587.75 277.35 585.55 276.85 582.55 276.85H578.05C575.45 276.85 573.55 277.05 572.25 277.35C570.95 277.75 570.05 278.35 569.55 279.25C569.05 280.35 568.65 281.05 568.15 281.55C567.65 281.95 566.95 282.15 565.95 282.15C564.85 282.15 564.05 281.85 563.35 281.25C562.75 280.65 562.55 279.85 562.85 278.85C563.65 275.95 565.25 273.75 567.75 272.45C570.25 271.15 573.65 270.45 578.15 270.45H582.65C587.85 270.45 591.65 271.65 594.15 274.15C596.65 276.65 597.85 280.45 597.85 285.65V306.55C597.85 308.75 596.75 309.85 594.55 309.85C592.35 309.85 591.25 308.75 591.25 306.55V304.75C588.45 308.05 584.45 309.75 579.15 309.75H574.65ZM574.65 303.15H579.05C580.95 303.15 582.75 302.95 584.45 302.65C586.15 302.35 587.55 301.65 588.75 300.75C589.95 299.85 590.75 298.45 591.15 296.75V290.45H574.65C572.05 290.45 570.35 290.85 569.55 291.75C568.75 292.65 568.25 294.35 568.25 296.85C568.25 299.35 568.65 301.15 569.55 301.95C570.35 302.75 572.05 303.15 574.65 303.15Z" fill="#1A1A1A"/>
<path d="M616.25 309.75C614.05 309.75 612.95 308.65 612.95 306.45V273.55C612.95 271.35 614.05 270.25 616.25 270.25C618.45 270.25 619.55 271.35 619.55 273.55V274.85C622.25 271.85 626.35 270.25 631.65 270.25H633.85C639.05 270.25 642.85 271.45 645.35 273.95C647.85 276.45 649.05 280.25 649.05 285.45V306.35C649.05 308.55 647.95 309.65 645.75 309.65C643.55 309.65 642.45 308.55 642.45 306.35V285.45C642.45 282.05 641.85 279.75 640.65 278.55C639.45 277.35 637.15 276.75 633.75 276.75H631.55C628.45 276.75 625.75 277.15 623.45 277.85C621.15 278.55 619.85 279.65 619.45 281.25V306.45C619.55 308.65 618.45 309.75 616.25 309.75Z" fill="#1A1A1A"/>
<path d="M677.85 309.75C672.65 309.75 668.85 308.45 666.35 305.95C663.85 303.45 662.55 299.65 662.55 294.45V285.45C662.55 280.25 663.75 276.45 666.25 273.95C668.75 271.45 672.55 270.25 677.75 270.25H684.15C688.05 270.25 691.05 270.95 693.25 272.15C695.45 273.45 696.85 275.45 697.55 278.15C697.75 279.25 697.55 280.05 696.95 280.65C696.35 281.25 695.45 281.55 694.35 281.55C693.35 281.55 692.55 281.25 692.15 280.75C691.65 280.25 691.25 279.55 690.85 278.55C690.45 277.85 689.75 277.35 688.75 277.05C687.75 276.75 686.15 276.65 684.15 276.65H677.75C674.45 276.55 672.15 277.15 670.85 278.35C669.65 279.55 669.05 281.85 669.05 285.25V294.25C669.05 297.65 669.65 299.95 670.85 301.15C672.05 302.35 674.35 302.95 677.75 302.95H684.15C686.15 302.95 687.65 302.85 688.75 302.55C689.75 302.25 690.55 301.75 690.85 301.05C691.25 300.05 691.65 299.35 692.15 298.85C692.65 298.35 693.35 298.15 694.45 298.15C695.55 298.15 696.35 298.45 696.95 299.05C697.55 299.65 697.75 300.45 697.55 301.55C696.95 304.25 695.55 306.25 693.25 307.55C691.05 308.85 687.95 309.55 684.15 309.55H677.85V309.75Z" fill="#1A1A1A"/>
<path d="M715.75 292.65V294.55C715.75 297.85 716.35 300.15 717.55 301.35C718.75 302.55 721.05 303.15 724.45 303.15H730.85C733.45 303.15 735.45 302.95 736.75 302.45C738.05 301.95 738.85 301.05 739.25 299.85C739.55 298.85 739.95 298.15 740.45 297.55C740.95 297.05 741.75 296.75 742.75 296.75C743.85 296.75 744.65 297.05 745.25 297.65C745.85 298.25 746.05 299.05 745.75 300.15C745.15 303.35 743.65 305.75 741.15 307.35C738.65 308.95 735.25 309.75 730.85 309.75H724.45C719.25 309.75 715.45 308.55 712.95 306.05C710.45 303.55 709.15 299.75 709.15 294.65V285.65C709.15 280.35 710.45 276.55 712.95 274.05C715.45 271.55 719.25 270.35 724.45 270.45H730.85C736.05 270.45 739.85 271.65 742.35 274.15C744.85 276.65 746.05 280.45 746.05 285.65V289.55C746.05 291.75 744.95 292.85 742.75 292.85H715.75V292.65ZM724.55 276.85C721.15 276.75 718.85 277.35 717.65 278.65C716.45 279.85 715.85 282.15 715.85 285.65V286.25H739.65V285.65C739.65 282.25 739.05 279.95 737.85 278.75C736.65 277.55 734.35 276.95 730.95 276.95H724.55V276.85Z" fill="#1A1A1A"/>
</g>
<defs>
<clipPath id="clip0_331_503">
<rect width="796.3" height="209.5" fill="white" transform="translate(57.8501 100.75)"/>
</clipPath>
</defs>
</svg>
